<svg xmlns="http://www.w3.org/2000/svg" viewBox="0 0 512 512"><defs><linearGradient id="a" x1="0%" x2="100%" y1="0%" y2="100%"><stop offset="0%" style="stop-color:#fcd34d;stop-opacity:1"/><stop offset="100%" style="stop-color:#f59e0b;stop-opacity:1"/></linearGradient><filter id="b" width="140%" height="140%" x="-20%" y="-20%"><feDropShadow dx="0" dy="4" flood-color="#f59e0b" flood-opacity=".3" stdDeviation="8"/></filter></defs><circle cx="256" cy="256" r="240" fill="url(#a)" filter="url(#b)"/><circle cx="256" cy="256" r="230" fill="none" stroke="#fff" stroke-width="12" opacity=".8"/><g fill="#15803d"><path d="M131 381h250c0-137.5-112.5-250-250-250z"/><path d="M381 131h-50c0 162.5-137.5 300-300 300v-50c112.5 0 200-87.5 200-200v-50z" opacity=".8"/><path d="M256 256c0 68.75-56.25 125-125 125v-25c55 0 100-45 100-100s-45-100-100-100v-25c68.75 0 125 56.25 125 125" opacity=".6"/></g></svg>